<?xml version="1.0" encoding="UTF-8" standalone="no"?>
<svg
   xmlns:dc="http://purl.org/dc/elements/1.1/"
   xmlns:cc="http://creativecommons.org/ns#"
   xmlns:rdf="http://www.w3.org/1999/02/22-rdf-syntax-ns#"
   xmlns:svg="http://www.w3.org/2000/svg"
   xmlns="http://www.w3.org/2000/svg"
   id="SVGRoot"
   version="1.1"
   viewBox="0 0 16.0 16.0"
   height="16.0px"
   width="16.0px">
  <defs
     id="defs202" />
  <metadata
     id="metadata205">
    <rdf:RDF>
      <cc:Work
         rdf:about="">
        <dc:format>image/svg+xml</dc:format>
        <dc:type
           rdf:resource="http://purl.org/dc/dcmitype/StillImage" />
        <dc:title></dc:title>
      </cc:Work>
    </rdf:RDF>
  </metadata>
  <g>
    <rect width="100%" height="100%" fill="white" rx="20%"/>
    <path d="m 2.0703041,8.0033169 h 3.5093444 c 0.7360024,0 1.2800041,-0.2026673 1.6960054,-0.6506687 0.3840012,-0.4053347 0.5973352,-0.9600031 0.5973352,-1.568005 0,-0.9386696 -0.426668,-1.5040047 -1.4186711,-1.888006 0.7146689,-0.3306677 1.0773367,-0.8960028 1.0773367,-1.6960053 0,-0.5760018 -0.213334,-1.0666701 -0.6186686,-1.42933787 C 6.4969848,0.39795952 5.9743164,0.22729231 5.2276474,0.22729231 H 2.0703041 Z M 3.0623073,3.5766362 V 1.1019617 h 1.920006 c 0.5546684,0 0.8640027,0.074667 1.1306703,0.2773343 0.2773342,0.213334 0.426668,0.533335 0.426668,0.960003 0,0.426668 -0.1493338,0.746669 -0.426668,0.960003 C 5.846316,3.5019693 5.5369817,3.5766362 4.9823133,3.5766362 Z m 0,3.5520112 V 4.4513057 h 2.4213409 c 0.8746695,0 1.3973378,0.5013349 1.3973378,1.3440042 0,0.8320026 -0.5226683,1.3333375 -1.3973378,1.3333375 z m 9.9363977,5.2442156 v 3.541344 h 0.992003 V 8.1381829 H 12.998705 V 11.498194 H 8.9986919 V 8.1381829 H 8.0066888 V 15.914207 H 8.9986919 V 12.372863 Z M 7.9754853,11.7854 H 4.7328084 v 0.874669 h 2.3680075 v 0.213334 c 0,1.386671 -1.0240032,2.389341 -2.4426744,2.389341 -0.7893358,0 -1.5040047,-0.288001 -1.9626729,-0.789336 C 2.183467,13.91874 1.8741327,12.990737 1.8741327,12.030734 c 0,-1.90934 1.0880035,-3.1680102 2.7306753,-3.1680102 1.1840038,0 2.0373398,0.6080019 2.2506738,1.6106722 H 7.8688183 C 7.5914841,8.8947239 6.3968137,7.9880544 4.6154747,7.9880544 c -0.9493363,0 -1.7173387,0.2453341 -2.3253407,0.746669 -0.9066695,0.746669 -1.40800442,1.9520066 -1.40800442,3.3493436 0,2.389341 1.46133792,4.053346 3.56267792,4.053346 1.0560033,0 1.888006,-0.394667 2.6560084,-1.237337 L 7.34615,15.934746 H 7.9754853 Z M 7.9576166,8.0475655 h 3.5093444 c 0.736002,0 1.280004,-0.2026673 1.696005,-0.6506688 0.384002,-0.4053346 0.597336,-0.960003 0.597336,-1.5680049 0,-0.9386696 -0.426668,-1.5040048 -1.418672,-1.888006 0.714669,-0.3306677 1.077337,-0.8960028 1.077337,-1.6960053 0,-0.5760019 -0.213334,-1.0666701 -0.618668,-1.42933789 C 12.384297,0.4422081 11.861629,0.2715409 11.11496,0.2715409 H 7.9576166 Z M 8.9496198,3.6208848 V 1.1462103 h 1.9200062 c 0.554668,0 0.864003,0.074667 1.13067,0.2773342 0.277334,0.213334 0.426668,0.5333351 0.426668,0.9600031 0,0.426668 -0.149334,0.746669 -0.426668,0.960003 -0.266667,0.2026673 -0.576002,0.2773342 -1.13067,0.2773342 z m 0,3.5520112 V 4.4955542 h 2.4213412 c 0.874669,0 1.397338,0.501335 1.397338,1.3440043 0,0.8320026 -0.522669,1.3333375 -1.397338,1.3333375 z"/>
  </g>
</svg>
